<svg width="23" height="23" viewBox="0 0 23 23" fill="none" xmlns="http://www.w3.org/2000/svg">
<path d="M11.5 0C5.14865 0 0 5.14865 0 11.5C0 17.8514 5.14865 23 11.5 23C17.8514 23 23 17.8514 23 11.5C23 5.14865 17.8514 0 11.5 0ZM8.6849 16.2665H6.35615V8.77234H8.6849V16.2665ZM7.50615 7.85234C6.77062 7.85234 6.29505 7.33125 6.29505 6.68677C6.29505 6.02911 6.785 5.52359 7.53609 5.52359C8.28719 5.52359 8.74719 6.02911 8.76156 6.68677C8.76156 7.33125 8.28719 7.85234 7.50615 7.85234ZM17.1901 16.2665H14.8614V12.1133C14.8614 11.1466 14.5235 10.4902 13.6814 10.4902C13.0381 10.4902 12.656 10.9346 12.4871 11.3622C12.4248 11.5144 12.4092 11.73 12.4092 11.9444V16.2653H10.0793V11.1622C10.0793 10.2266 10.0493 9.44438 10.0182 8.77115H12.0415L12.1481 9.81213H12.1948C12.5015 9.32339 13.2526 8.60224 14.5092 8.60224C16.0413 8.60224 17.1901 9.62885 17.1901 11.8354V16.2665Z" fill="white"/>
</svg>
