<svg width="258" height="67" viewBox="0 0 258 67" fill="none" xmlns="http://www.w3.org/2000/svg">
<path d="M84.3648 24.6108H77.2066L75.7401 28.6373H72.1113L78.8718 11.0152H82.8486L89.5594 28.6373H85.8312L84.3648 24.6108ZM78.3499 21.4791H83.2214L80.7857 14.818L78.3499 21.4791Z" fill="#0A243F"/>
<path d="M91.5162 28.6373V16.4087H94.6727V17.9C94.8384 17.6017 95.0538 17.3366 95.319 17.1046C95.5841 16.8727 95.874 16.6821 96.1889 16.533C96.5203 16.3838 96.86 16.2679 97.2079 16.185C97.5725 16.1022 97.9204 16.0607 98.2518 16.0607C99.0969 16.0607 99.8342 16.2347 100.464 16.5827C101.094 16.9306 101.566 17.436 101.881 18.0988C102.361 17.3532 102.925 16.8312 103.571 16.533C104.217 16.2181 104.946 16.0607 105.758 16.0607C106.321 16.0607 106.868 16.1519 107.398 16.3341C107.929 16.4998 108.401 16.7732 108.815 17.1543C109.229 17.5355 109.561 18.0243 109.809 18.6208C110.058 19.2007 110.182 19.8967 110.182 20.7086V28.6373H106.976V21.3797C106.976 20.7169 106.802 20.1701 106.454 19.7392C106.123 19.2919 105.576 19.0682 104.814 19.0682C104.101 19.0682 103.546 19.3084 103.148 19.789C102.751 20.2529 102.552 20.8163 102.552 21.4791V28.6373H99.2709V21.3797C99.2709 20.7169 99.0969 20.1701 98.7489 19.7392C98.401 19.2919 97.8541 19.0682 97.1085 19.0682C96.3794 19.0682 95.816 19.3001 95.4184 19.7641C95.0207 20.2281 94.8219 20.7997 94.8219 21.4791V28.6373H91.5162Z" fill="#0A243F"/>
<path d="M112.785 25.3067C112.785 24.7599 112.877 24.2794 113.059 23.8652C113.258 23.4343 113.523 23.0615 113.854 22.7467C114.186 22.4319 114.567 22.1833 114.998 22.001C115.445 21.8188 115.925 21.6862 116.439 21.6034L119.447 21.156C119.795 21.1063 120.035 21.0068 120.167 20.8577C120.3 20.692 120.366 20.5015 120.366 20.2861C120.366 19.8552 120.192 19.4824 119.844 19.1676C119.513 18.8528 118.999 18.6953 118.303 18.6953C117.574 18.6953 117.011 18.8942 116.613 19.2919C116.232 19.6895 116.017 20.1535 115.967 20.6837L113.034 20.0624C113.084 19.5818 113.233 19.1013 113.481 18.6208C113.73 18.1403 114.07 17.7094 114.5 17.3283C114.931 16.9472 115.462 16.6407 116.091 16.4087C116.721 16.1601 117.45 16.0359 118.278 16.0359C119.239 16.0359 120.06 16.1684 120.739 16.4336C121.418 16.6821 121.965 17.0218 122.379 17.4526C122.81 17.8668 123.117 18.3557 123.299 18.919C123.498 19.4824 123.597 20.0706 123.597 20.6837V26.6986C123.597 27.03 123.614 27.3863 123.647 27.7674C123.68 28.1319 123.713 28.4219 123.746 28.6373H120.714C120.681 28.4716 120.648 28.2479 120.615 27.9662C120.598 27.6679 120.59 27.4028 120.59 27.1708C120.275 27.6514 119.819 28.0739 119.223 28.4384C118.643 28.803 117.897 28.9852 116.986 28.9852C116.34 28.9852 115.752 28.8775 115.221 28.6621C114.708 28.4633 114.269 28.1982 113.904 27.8668C113.539 27.5188 113.258 27.1294 113.059 26.6986C112.877 26.2512 112.785 25.7873 112.785 25.3067ZM117.682 26.5246C118.03 26.5246 118.361 26.4832 118.676 26.4003C119.007 26.3009 119.297 26.1435 119.546 25.9281C119.795 25.6961 119.993 25.4062 120.143 25.0582C120.292 24.6936 120.366 24.238 120.366 23.6912V23.1444L117.607 23.5669C117.177 23.6332 116.812 23.7906 116.514 24.0391C116.232 24.2711 116.091 24.6274 116.091 25.1079C116.091 25.4724 116.224 25.8038 116.489 26.1021C116.754 26.3838 117.152 26.5246 117.682 26.5246Z" fill="#0A243F"/>
<path d="M126.084 28.6373V25.7293L131.876 19.267H126.234V16.4087H136.101V19.1676L130.136 25.7541H136.2V28.6373H126.084Z" fill="#0A243F"/>
<path d="M138.896 28.6373V16.4087H142.201V28.6373H138.896ZM138.498 12.4071C138.498 11.8271 138.697 11.3383 139.095 10.9406C139.492 10.543 139.973 10.3441 140.536 10.3441C141.116 10.3441 141.597 10.543 141.978 10.9406C142.375 11.3383 142.574 11.8271 142.574 12.4071C142.574 12.9539 142.375 13.4261 141.978 13.8238C141.597 14.2215 141.116 14.4203 140.536 14.4203C139.973 14.4203 139.492 14.2215 139.095 13.8238C138.697 13.4261 138.498 12.9539 138.498 12.4071Z" fill="#0A243F"/>
<path d="M149.046 28.6373H145.74V16.4087H148.947V17.9248C149.328 17.2952 149.842 16.8312 150.488 16.533C151.151 16.2347 151.813 16.0856 152.476 16.0856C153.238 16.0856 153.893 16.2181 154.44 16.4833C155.003 16.7318 155.467 17.0715 155.832 17.5023C156.196 17.9331 156.461 18.4468 156.627 19.0433C156.809 19.6398 156.9 20.2695 156.9 20.9323V28.6373H153.595V21.5039C153.595 20.808 153.412 20.2281 153.048 19.7641C152.7 19.3001 152.128 19.0682 151.333 19.0682C150.604 19.0682 150.04 19.3167 149.643 19.8138C149.245 20.2943 149.046 20.8909 149.046 21.6034V28.6373Z" fill="#0A243F"/>
<path d="M162.368 28.513C162.484 29.1924 162.791 29.7475 163.288 30.1783C163.785 30.6091 164.431 30.8245 165.226 30.8245C166.27 30.8245 167.074 30.5511 167.637 30.0043C168.201 29.4741 168.482 28.6124 168.482 27.4194V26.5246C168.234 26.9223 167.828 27.2868 167.264 27.6182C166.701 27.9331 165.972 28.0905 165.077 28.0905C164.265 28.0905 163.511 27.9413 162.815 27.6431C162.119 27.3448 161.515 26.9306 161.001 26.4003C160.504 25.8701 160.106 25.2487 159.808 24.5362C159.526 23.8072 159.385 23.0118 159.385 22.1502C159.385 21.3382 159.526 20.576 159.808 19.8635C160.09 19.1344 160.479 18.4965 160.976 17.9497C161.473 17.4029 162.07 16.9721 162.766 16.6572C163.462 16.3424 164.232 16.185 165.077 16.185C166.055 16.185 166.825 16.359 167.389 16.707C167.952 17.0549 168.341 17.436 168.557 17.8503V16.4087H171.738V27.32C171.738 28.165 171.614 28.9687 171.365 29.7309C171.133 30.5097 170.761 31.189 170.247 31.769C169.733 32.3655 169.071 32.8377 168.259 33.1857C167.447 33.5503 166.469 33.7325 165.326 33.7325C164.481 33.7325 163.71 33.6082 163.014 33.3597C162.335 33.1277 161.738 32.8046 161.225 32.3904C160.711 31.9927 160.297 31.5204 159.982 30.9736C159.667 30.4434 159.468 29.8883 159.385 29.3084L162.368 28.513ZM165.649 25.257C166.494 25.257 167.182 24.9753 167.712 24.412C168.259 23.8486 168.532 23.0947 168.532 22.1502C168.532 21.2057 168.25 20.46 167.687 19.9132C167.124 19.3499 166.444 19.0682 165.649 19.0682C165.235 19.0682 164.845 19.1427 164.481 19.2919C164.133 19.4244 163.826 19.6315 163.561 19.9132C163.296 20.1783 163.089 20.5015 162.94 20.8826C162.791 21.2637 162.716 21.6862 162.716 22.1502C162.716 23.1112 162.989 23.8734 163.536 24.4368C164.083 24.9836 164.787 25.257 165.649 25.257Z" fill="#0A243F"/>
<path d="M187.639 25.4559C188.352 25.4559 189.031 25.3482 189.677 25.1327C190.323 24.9008 190.887 24.5528 191.367 24.0888C191.848 23.6249 192.229 23.0449 192.511 22.349C192.792 21.6365 192.933 20.7997 192.933 19.8387C192.933 18.8776 192.792 18.0491 192.511 17.3532C192.229 16.6407 191.848 16.0524 191.367 15.5885C190.903 15.1245 190.348 14.7766 189.702 14.5446C189.056 14.3126 188.377 14.1966 187.664 14.1966H184.905V25.4559H187.639ZM181.475 28.6373V11.0152H187.788C189.048 11.0152 190.207 11.214 191.268 11.6117C192.328 12.0094 193.24 12.5893 194.002 13.3516C194.781 14.0972 195.386 15.0168 195.816 16.1104C196.264 17.2041 196.487 18.4468 196.487 19.8387C196.487 21.2305 196.264 22.4733 195.816 23.5669C195.386 24.6605 194.781 25.5801 194.002 26.3258C193.223 27.0714 192.304 27.6431 191.243 28.0408C190.183 28.4384 189.023 28.6373 187.763 28.6373H181.475Z" fill="#0A243F"/>
<path d="M207.164 21.1311C207.148 20.8329 207.081 20.5429 206.965 20.2612C206.866 19.9629 206.7 19.7061 206.468 19.4907C206.253 19.2587 205.971 19.0765 205.623 18.9439C205.292 18.7948 204.894 18.7202 204.43 18.7202C203.999 18.7202 203.618 18.7948 203.287 18.9439C202.955 19.093 202.674 19.2836 202.442 19.5156C202.21 19.7475 202.028 20.0044 201.895 20.2861C201.779 20.5677 201.713 20.8494 201.696 21.1311H207.164ZM210.246 25.1327C210.097 25.663 209.857 26.1684 209.525 26.6489C209.211 27.1128 208.821 27.5188 208.357 27.8668C207.893 28.2147 207.346 28.4882 206.717 28.687C206.104 28.9024 205.424 29.0101 204.679 29.0101C203.834 29.0101 203.03 28.8693 202.268 28.5876C201.506 28.2893 200.834 27.8585 200.255 27.2951C199.675 26.7317 199.211 26.0441 198.863 25.2322C198.531 24.4202 198.366 23.5006 198.366 22.4733C198.366 21.4957 198.531 20.6092 198.863 19.8138C199.194 19.0185 199.633 18.3474 200.18 17.8006C200.743 17.2372 201.39 16.8064 202.119 16.5081C202.848 16.1933 203.602 16.0359 204.38 16.0359C206.286 16.0359 207.769 16.5993 208.829 17.726C209.89 18.8528 210.42 20.402 210.42 22.3739C210.42 22.6058 210.412 22.8295 210.395 23.0449C210.379 23.2438 210.37 23.3598 210.37 23.3929H201.622C201.638 23.7906 201.729 24.1634 201.895 24.5114C202.077 24.8428 202.301 25.1327 202.566 25.3813C202.848 25.6298 203.171 25.8287 203.535 25.9778C203.9 26.1104 204.289 26.1767 204.704 26.1767C205.482 26.1767 206.087 26.0027 206.518 25.6547C206.965 25.3067 207.288 24.8593 207.487 24.3125L210.246 25.1327Z" fill="#0A243F"/>
<path d="M214.813 24.6108C214.846 25.0913 215.045 25.5221 215.409 25.9032C215.774 26.2844 216.321 26.4749 217.05 26.4749C217.597 26.4749 218.003 26.3589 218.268 26.1269C218.533 25.8784 218.665 25.5884 218.665 25.257C218.665 24.9753 218.566 24.7351 218.367 24.5362C218.168 24.3208 217.829 24.1634 217.348 24.064L215.732 23.6912C214.539 23.426 213.67 22.9704 213.123 22.3242C212.576 21.6614 212.303 20.8991 212.303 20.0375C212.303 19.4907 212.419 18.977 212.65 18.4965C212.882 17.9994 213.197 17.5769 213.595 17.2289C214.009 16.8644 214.49 16.5744 215.037 16.359C215.6 16.1436 216.213 16.0359 216.876 16.0359C217.737 16.0359 218.467 16.1601 219.063 16.4087C219.66 16.6407 220.14 16.9389 220.505 17.3035C220.886 17.668 221.167 18.0574 221.35 18.4716C221.532 18.8693 221.64 19.2339 221.673 19.5653L218.914 20.1866C218.881 20.0044 218.823 19.8221 218.74 19.6398C218.674 19.441 218.558 19.2587 218.392 19.093C218.226 18.9273 218.019 18.7948 217.771 18.6953C217.539 18.5959 217.249 18.5462 216.901 18.5462C216.47 18.5462 216.097 18.6622 215.782 18.8942C215.484 19.1262 215.335 19.4161 215.335 19.7641C215.335 20.0624 215.434 20.3026 215.633 20.4849C215.848 20.6672 216.122 20.7914 216.453 20.8577L218.193 21.2305C219.403 21.4791 220.306 21.943 220.902 22.6224C221.515 23.3018 221.822 24.0888 221.822 24.9836C221.822 25.4807 221.723 25.9695 221.524 26.4501C221.341 26.9306 221.051 27.3614 220.654 27.7425C220.256 28.1236 219.759 28.4302 219.162 28.6621C218.566 28.8941 217.87 29.0101 217.075 29.0101C216.147 29.0101 215.368 28.8775 214.738 28.6124C214.109 28.3473 213.595 28.0242 213.197 27.6431C212.8 27.262 212.501 26.856 212.303 26.4252C212.12 25.9778 212.013 25.5801 211.979 25.2322L214.813 24.6108Z" fill="#0A243F"/>
<path d="M224.48 28.6373V16.4087H227.786V28.6373H224.48ZM224.082 12.4071C224.082 11.8271 224.281 11.3383 224.679 10.9406C225.076 10.543 225.557 10.3441 226.12 10.3441C226.7 10.3441 227.181 10.543 227.562 10.9406C227.96 11.3383 228.158 11.8271 228.158 12.4071C228.158 12.9539 227.96 13.4261 227.562 13.8238C227.181 14.2215 226.7 14.4203 226.12 14.4203C225.557 14.4203 225.076 14.2215 224.679 13.8238C224.281 13.4261 224.082 12.9539 224.082 12.4071Z" fill="#0A243F"/>
<path d="M233.437 28.513C233.553 29.1924 233.86 29.7475 234.357 30.1783C234.854 30.6091 235.5 30.8245 236.296 30.8245C237.34 30.8245 238.143 30.5511 238.707 30.0043C239.27 29.4741 239.552 28.6124 239.552 27.4194V26.5246C239.303 26.9223 238.897 27.2868 238.334 27.6182C237.77 27.9331 237.041 28.0905 236.146 28.0905C235.335 28.0905 234.581 27.9413 233.885 27.6431C233.189 27.3448 232.584 26.9306 232.07 26.4003C231.573 25.8701 231.176 25.2487 230.877 24.5362C230.596 23.8072 230.455 23.0118 230.455 22.1502C230.455 21.3382 230.596 20.576 230.877 19.8635C231.159 19.1344 231.548 18.4965 232.045 17.9497C232.543 17.4029 233.139 16.9721 233.835 16.6572C234.531 16.3424 235.301 16.185 236.146 16.185C237.124 16.185 237.895 16.359 238.458 16.707C239.021 17.0549 239.411 17.436 239.626 17.8503V16.4087H242.808V27.32C242.808 28.165 242.683 28.9687 242.435 29.7309C242.203 30.5097 241.83 31.189 241.316 31.769C240.803 32.3655 240.14 32.8377 239.328 33.1857C238.516 33.5503 237.538 33.7325 236.395 33.7325C235.55 33.7325 234.779 33.6082 234.084 33.3597C233.404 33.1277 232.808 32.8046 232.294 32.3904C231.78 31.9927 231.366 31.5204 231.051 30.9736C230.736 30.4434 230.538 29.8883 230.455 29.3084L233.437 28.513ZM236.718 25.257C237.563 25.257 238.251 24.9753 238.781 24.412C239.328 23.8486 239.601 23.0947 239.601 22.1502C239.601 21.2057 239.32 20.46 238.756 19.9132C238.193 19.3499 237.513 19.0682 236.718 19.0682C236.304 19.0682 235.914 19.1427 235.55 19.2919C235.202 19.4244 234.895 19.6315 234.63 19.9132C234.365 20.1783 234.158 20.5015 234.009 20.8826C233.86 21.2637 233.785 21.6862 233.785 22.1502C233.785 23.1112 234.059 23.8734 234.605 24.4368C235.152 24.9836 235.856 25.257 236.718 25.257Z" fill="#0A243F"/>
<path d="M249.461 28.6373H246.155V16.4087H249.361V17.9248C249.742 17.2952 250.256 16.8312 250.902 16.533C251.565 16.2347 252.228 16.0856 252.891 16.0856C253.653 16.0856 254.307 16.2181 254.854 16.4833C255.418 16.7318 255.882 17.0715 256.246 17.5023C256.611 17.9331 256.876 18.4468 257.041 19.0433C257.224 19.6398 257.315 20.2695 257.315 20.9323V28.6373H254.009V21.5039C254.009 20.808 253.827 20.2281 253.462 19.7641C253.114 19.3001 252.543 19.0682 251.747 19.0682C251.018 19.0682 250.455 19.3167 250.057 19.8138C249.66 20.2943 249.461 20.8909 249.461 21.6034V28.6373Z" fill="#0A243F"/>
<path d="M80.04 46.5998C80.9017 46.5998 81.5727 46.3761 82.0533 45.9287C82.5504 45.4647 82.7989 44.8516 82.7989 44.0894C82.7989 43.2941 82.5504 42.6727 82.0533 42.2253C81.5727 41.7779 80.9017 41.5542 80.04 41.5542H77.3308V46.5998H80.04ZM77.306 49.5575V56.1937H73.876V38.5716H80.4626C81.3242 38.5716 82.1113 38.7125 82.8238 38.9942C83.5363 39.2593 84.1494 39.6404 84.663 40.1375C85.1767 40.618 85.5661 41.198 85.8312 41.8773C86.1129 42.5401 86.2537 43.2692 86.2537 44.0646C86.2537 44.8599 86.1129 45.5973 85.8312 46.2766C85.5661 46.956 85.1767 47.536 84.663 48.0165C84.1494 48.497 83.5363 48.8781 82.8238 49.1598C82.1113 49.4249 81.3242 49.5575 80.4626 49.5575H77.306Z" fill="#0A243F"/>
<path d="M95.8028 48.6876C95.7863 48.3893 95.72 48.0993 95.604 47.8177C95.5046 47.5194 95.3389 47.2626 95.1069 47.0472C94.8915 46.8152 94.6098 46.6329 94.2618 46.5003C93.9304 46.3512 93.5328 46.2766 93.0688 46.2766C92.638 46.2766 92.2569 46.3512 91.9255 46.5003C91.5941 46.6495 91.3124 46.84 91.0804 47.072C90.8484 47.304 90.6662 47.5608 90.5336 47.8425C90.4176 48.1242 90.3514 48.4059 90.3348 48.6876H95.8028ZM98.8848 52.6892C98.7357 53.2194 98.4955 53.7248 98.1641 54.2053C97.8492 54.6693 97.4598 55.0753 96.9959 55.4232C96.5319 55.7712 95.9851 56.0446 95.3555 56.2434C94.7424 56.4589 94.063 56.5666 93.3174 56.5666C92.4723 56.5666 91.6687 56.4257 90.9064 56.144C90.1442 55.8458 89.4731 55.4149 88.8932 54.8516C88.3133 54.2882 87.8493 53.6005 87.5013 52.7886C87.1699 51.9767 87.0042 51.0571 87.0042 50.0297C87.0042 49.0521 87.1699 48.1656 87.5013 47.3703C87.8327 46.5749 88.2718 45.9038 88.8186 45.357C89.382 44.7936 90.0282 44.3628 90.7573 44.0646C91.4864 43.7497 92.2403 43.5923 93.0191 43.5923C94.9246 43.5923 96.4076 44.1557 97.4681 45.2825C98.5286 46.4092 99.0588 47.9585 99.0588 49.9303C99.0588 50.1623 99.0505 50.386 99.034 50.6014C99.0174 50.8002 99.0091 50.9162 99.0091 50.9494H90.2602C90.2768 51.347 90.3679 51.7199 90.5336 52.0678C90.7159 52.3992 90.9396 52.6892 91.2047 52.9377C91.4864 53.1863 91.8095 53.3851 92.174 53.5343C92.5386 53.6668 92.928 53.7331 93.3422 53.7331C94.121 53.7331 94.7258 53.5591 95.1566 53.2112C95.604 52.8632 95.9271 52.4158 96.126 51.869L98.8848 52.6892Z" fill="#0A243F"/>
<path d="M107.155 53.5591C107.553 53.5591 107.942 53.4846 108.323 53.3354C108.704 53.1863 109.036 52.9709 109.317 52.6892C109.599 52.3909 109.823 52.0264 109.988 51.5956C110.171 51.1648 110.262 50.6594 110.262 50.0794C110.262 49.4995 110.171 48.9941 109.988 48.5633C109.823 48.1325 109.599 47.7762 109.317 47.4945C109.036 47.1963 108.704 46.9726 108.323 46.8235C107.942 46.6743 107.553 46.5998 107.155 46.5998C106.757 46.5998 106.368 46.6743 105.987 46.8235C105.606 46.9726 105.274 47.1963 104.993 47.4945C104.711 47.7762 104.479 48.1325 104.297 48.5633C104.131 48.9941 104.048 49.4995 104.048 50.0794C104.048 50.6594 104.131 51.1648 104.297 51.5956C104.479 52.0264 104.711 52.3909 104.993 52.6892C105.274 52.9709 105.606 53.1863 105.987 53.3354C106.368 53.4846 106.757 53.5591 107.155 53.5591ZM107.155 43.5923C108.066 43.5923 108.911 43.758 109.69 44.0894C110.485 44.4043 111.165 44.8516 111.728 45.4316C112.308 45.995 112.756 46.6743 113.07 47.4697C113.402 48.265 113.567 49.135 113.567 50.0794C113.567 51.0239 113.402 51.8938 113.07 52.6892C112.756 53.468 112.308 54.1474 111.728 54.7273C111.165 55.3072 110.485 55.7629 109.69 56.0943C108.911 56.4091 108.066 56.5666 107.155 56.5666C106.244 56.5666 105.39 56.4091 104.595 56.0943C103.816 55.7629 103.137 55.3072 102.557 54.7273C101.993 54.1474 101.546 53.468 101.215 52.6892C100.9 51.8938 100.742 51.0239 100.742 50.0794C100.742 49.135 100.9 48.265 101.215 47.4697C101.546 46.6743 101.993 45.995 102.557 45.4316C103.137 44.8516 103.816 44.4043 104.595 44.0894C105.39 43.758 106.244 43.5923 107.155 43.5923Z" fill="#0A243F"/>
<path d="M116.177 60.9162V43.9651H119.383V45.4564C119.665 44.9759 120.129 44.5617 120.775 44.2137C121.421 43.8657 122.208 43.6917 123.136 43.6917C124.031 43.6917 124.826 43.8574 125.522 44.1888C126.218 44.5037 126.806 44.9511 127.287 45.531C127.784 46.0944 128.157 46.7655 128.405 47.5442C128.654 48.3065 128.778 49.1432 128.778 50.0546C128.778 50.9825 128.637 51.8441 128.356 52.6395C128.091 53.4183 127.701 54.0976 127.188 54.6776C126.69 55.241 126.086 55.6884 125.373 56.0197C124.661 56.3346 123.874 56.492 123.012 56.492C122.167 56.492 121.438 56.3511 120.825 56.0695C120.228 55.7712 119.781 55.4149 119.483 55.0007V60.9162H116.177ZM125.522 50.0794C125.522 48.9858 125.224 48.1408 124.627 47.5442C124.048 46.9477 123.335 46.6495 122.49 46.6495C122.059 46.6495 121.661 46.7323 121.297 46.898C120.932 47.0472 120.609 47.2708 120.328 47.5691C120.046 47.8508 119.822 48.207 119.657 48.6379C119.507 49.0521 119.433 49.5326 119.433 50.0794C119.433 50.6262 119.507 51.1151 119.657 51.5459C119.822 51.9601 120.046 52.3164 120.328 52.6146C120.609 52.9129 120.932 53.1449 121.297 53.3106C121.661 53.4597 122.059 53.5343 122.49 53.5343C123.335 53.5343 124.048 53.236 124.627 52.6395C125.224 52.0264 125.522 51.1731 125.522 50.0794Z" fill="#0A243F"/>
<path d="M131.396 56.1937V38.1988H134.701V56.1937H131.396Z" fill="#0A243F"/>
<path d="M146.119 48.6876C146.103 48.3893 146.036 48.0993 145.92 47.8177C145.821 47.5194 145.655 47.2626 145.423 47.0472C145.208 46.8152 144.926 46.6329 144.578 46.5003C144.247 46.3512 143.849 46.2766 143.385 46.2766C142.954 46.2766 142.573 46.3512 142.242 46.5003C141.911 46.6495 141.629 46.84 141.397 47.072C141.165 47.304 140.983 47.5608 140.85 47.8425C140.734 48.1242 140.668 48.4059 140.651 48.6876H146.119ZM149.201 52.6892C149.052 53.2194 148.812 53.7248 148.481 54.2053C148.166 54.6693 147.776 55.0753 147.312 55.4232C146.848 55.7712 146.302 56.0446 145.672 56.2434C145.059 56.4589 144.379 56.5666 143.634 56.5666C142.789 56.5666 141.985 56.4257 141.223 56.144C140.461 55.8458 139.79 55.4149 139.21 54.8516C138.63 54.2882 138.166 53.6005 137.818 52.7886C137.486 51.9767 137.321 51.0571 137.321 50.0297C137.321 49.0521 137.486 48.1656 137.818 47.3703C138.149 46.5749 138.588 45.9038 139.135 45.357C139.698 44.7936 140.345 44.3628 141.074 44.0646C141.803 43.7497 142.557 43.5923 143.336 43.5923C145.241 43.5923 146.724 44.1557 147.785 45.2825C148.845 46.4092 149.375 47.9585 149.375 49.9303C149.375 50.1623 149.367 50.386 149.35 50.6014C149.334 50.8002 149.326 50.9162 149.326 50.9494H140.577C140.593 51.347 140.684 51.7199 140.85 52.0678C141.032 52.3992 141.256 52.6892 141.521 52.9377C141.803 53.1863 142.126 53.3851 142.491 53.5343C142.855 53.6668 143.244 53.7331 143.659 53.7331C144.437 53.7331 145.042 53.5591 145.473 53.2112C145.92 52.8632 146.244 52.4158 146.442 51.869L149.201 52.6892Z" fill="#0A243F"/>
<path d="M158.368 56.1937V38.5716H161.798V52.9129H169.652V56.1937H158.368Z" fill="#0A243F"/>
<path d="M172.027 56.1937V43.9651H175.333V56.1937H172.027ZM171.63 39.9635C171.63 39.3836 171.829 38.8948 172.226 38.4971C172.624 38.0994 173.104 37.9006 173.668 37.9006C174.248 37.9006 174.728 38.0994 175.109 38.4971C175.507 38.8948 175.706 39.3836 175.706 39.9635C175.706 40.5103 175.507 40.9826 175.109 41.3802C174.728 41.7779 174.248 41.9768 173.668 41.9768C173.104 41.9768 172.624 41.7779 172.226 41.3802C171.829 40.9826 171.63 40.5103 171.63 39.9635Z" fill="#0A243F"/>
<path d="M180.662 52.1672C180.695 52.6478 180.894 53.0786 181.258 53.4597C181.623 53.8408 182.17 54.0314 182.899 54.0314C183.445 54.0314 183.851 53.9154 184.117 53.6834C184.382 53.4348 184.514 53.1449 184.514 52.8135C184.514 52.5318 184.415 52.2915 184.216 52.0927C184.017 51.8773 183.677 51.7199 183.197 51.6204L181.581 51.2476C180.388 50.9825 179.518 50.5268 178.972 49.8806C178.425 49.2178 178.151 48.4556 178.151 47.594C178.151 47.0472 178.267 46.5335 178.499 46.053C178.731 45.5559 179.046 45.1333 179.444 44.7854C179.858 44.4208 180.339 44.1309 180.885 43.9154C181.449 43.7 182.062 43.5923 182.725 43.5923C183.586 43.5923 184.315 43.7166 184.912 43.9651C185.508 44.1971 185.989 44.4954 186.353 44.8599C186.735 45.2245 187.016 45.6139 187.199 46.0281C187.381 46.4258 187.489 46.7903 187.522 47.1217L184.763 47.7431C184.73 47.5608 184.672 47.3785 184.589 47.1963C184.523 46.9974 184.407 46.8152 184.241 46.6495C184.075 46.4838 183.868 46.3512 183.619 46.2518C183.387 46.1524 183.098 46.1027 182.75 46.1027C182.319 46.1027 181.946 46.2187 181.631 46.4506C181.333 46.6826 181.184 46.9726 181.184 47.3206C181.184 47.6188 181.283 47.8591 181.482 48.0413C181.697 48.2236 181.971 48.3479 182.302 48.4142L184.042 48.787C185.252 49.0355 186.155 49.4995 186.751 50.1789C187.364 50.8582 187.671 51.6453 187.671 52.5401C187.671 53.0372 187.571 53.526 187.373 54.0065C187.19 54.487 186.9 54.9179 186.503 55.299C186.105 55.6801 185.608 55.9866 185.011 56.2186C184.415 56.4506 183.719 56.5666 182.924 56.5666C181.996 56.5666 181.217 56.434 180.587 56.1689C179.958 55.9038 179.444 55.5806 179.046 55.1995C178.648 54.8184 178.35 54.4125 178.151 53.9817C177.969 53.5343 177.861 53.1366 177.828 52.7886L180.662 52.1672Z" fill="#0A243F"/>
<path d="M194.405 43.9651H196.866V46.898H194.405V52.0181C194.405 52.5484 194.521 52.9212 194.753 53.1366C195.001 53.3354 195.366 53.4348 195.846 53.4348C196.045 53.4348 196.244 53.4266 196.443 53.41C196.642 53.3934 196.783 53.3686 196.866 53.3354V56.0695C196.716 56.1357 196.484 56.202 196.17 56.2683C195.871 56.3346 195.482 56.3677 195.001 56.3677C193.808 56.3677 192.864 56.0363 192.168 55.3735C191.472 54.7107 191.124 53.7828 191.124 52.5898V46.898H188.912V43.9651H189.533C190.18 43.9651 190.652 43.7829 190.95 43.4183C191.265 43.0372 191.422 42.5733 191.422 42.0265V40.3115H194.405V43.9651Z" fill="#0A243F"/>
<path d="M33.5 6.28125C28.1167 6.28125 22.8542 7.8776 18.3781 10.8684C13.902 13.8593 10.4133 18.1103 8.35317 23.0838C6.29304 28.0574 5.75402 33.5302 6.80426 38.8101C7.8545 44.09 10.4468 48.94 14.2535 52.7466C18.0601 56.5532 22.91 59.1455 28.1899 60.1957C33.4698 61.246 38.9426 60.707 43.9162 58.6468C48.8898 56.5867 53.1407 53.098 56.1316 48.6219C59.1224 44.1458 60.7188 38.8834 60.7188 33.5C60.7188 26.2811 57.8511 19.3579 52.7466 14.2534C47.6421 9.14893 40.7189 6.28125 33.5 6.28125V6.28125ZM33.5 56.5312C28.9449 56.5312 24.492 55.1805 20.7045 52.6498C16.9171 50.1191 13.9651 46.5221 12.2219 42.3137C10.4787 38.1053 10.0226 33.4745 10.9113 29.0068C11.8 24.5392 13.9935 20.4354 17.2145 17.2144C20.4354 13.9935 24.5392 11.8 29.0068 10.9113C33.4745 10.0226 38.1053 10.4787 42.3137 12.2219C46.5221 13.9651 50.1191 16.9171 52.6498 20.7045C55.1805 24.492 56.5313 28.9448 56.5313 33.5C56.5313 39.6083 54.1048 45.4664 49.7856 49.7856C45.4664 54.1048 39.6083 56.5312 33.5 56.5312Z" fill="#0A243F"/>
<path d="M22.5916 32.9555C22.7862 33.1517 23.0178 33.3075 23.2729 33.4138C23.5281 33.5201 23.8017 33.5748 24.0781 33.5748C24.3545 33.5748 24.6282 33.5201 24.8833 33.4138C25.1385 33.3075 25.37 33.1517 25.5647 32.9555L30.485 28.0352C31.4095 27.0974 31.9733 25.8633 32.077 24.5505C32.1807 23.2377 31.8175 21.9304 31.0516 20.8591C30.2857 19.7879 29.1662 19.0214 27.8904 18.6948C26.6147 18.3682 25.2646 18.5024 24.0781 19.0739C22.8899 18.4672 21.5233 18.3072 20.227 18.623C18.9307 18.9389 17.7909 19.7096 17.0149 20.795C16.2389 21.8803 15.8784 23.2082 15.9988 24.5369C16.1193 25.8657 16.7127 27.107 17.6712 28.0352L22.5916 32.9555ZM20.6234 23.0311C20.7505 22.8981 20.9032 22.7922 21.0724 22.7199C21.2415 22.6475 21.4235 22.6102 21.6075 22.6102C21.7915 22.6102 21.9735 22.6475 22.1426 22.7199C22.3118 22.7922 22.4645 22.8981 22.5916 23.0311C22.7862 23.2273 23.0178 23.3831 23.2729 23.4894C23.5281 23.5957 23.8017 23.6504 24.0781 23.6504C24.3545 23.6504 24.6282 23.5957 24.8833 23.4894C25.1385 23.3831 25.37 23.2273 25.5647 23.0311C25.6933 22.9007 25.8465 22.7971 26.0154 22.7265C26.1843 22.6558 26.3656 22.6194 26.5487 22.6194C26.7319 22.6194 26.9132 22.6558 27.0821 22.7265C27.251 22.7971 27.4042 22.9007 27.5328 23.0311C27.6658 23.1582 27.7717 23.3109 27.844 23.48C27.9164 23.6492 27.9537 23.8312 27.9537 24.0152C27.9537 24.1991 27.9164 24.3812 27.844 24.5503C27.7717 24.7194 27.6658 24.8721 27.5328 24.9992L24.0781 28.5167L20.6234 25.1248C20.4904 24.9978 20.3845 24.8451 20.3122 24.6759C20.2399 24.5068 20.2026 24.3247 20.2026 24.1408C20.2026 23.9568 20.2399 23.7748 20.3122 23.6056C20.3845 23.4365 20.4904 23.2838 20.6234 23.1567V23.0311Z" fill="#0A243F"/>
<path d="M41.4353 32.9555C41.63 33.1517 41.8615 33.3075 42.1167 33.4138C42.3718 33.5201 42.6455 33.5748 42.9219 33.5748C43.1983 33.5748 43.4719 33.5201 43.7271 33.4138C43.9822 33.3075 44.2138 33.1517 44.4084 32.9555L49.3288 28.0352C50.2533 27.0974 50.8171 25.8633 50.9207 24.5505C51.0244 23.2377 50.6613 21.9304 49.8954 20.8591C49.1295 19.7879 48.01 19.0214 46.7342 18.6948C45.4584 18.3682 44.1083 18.5024 42.9219 19.0739C41.7336 18.4672 40.367 18.3072 39.0707 18.623C37.7744 18.9389 36.6346 19.7096 35.8587 20.795C35.0827 21.8803 34.7221 23.2082 34.8426 24.5369C34.963 25.8657 35.5565 27.107 36.515 28.0352L41.4353 32.9555ZM39.4672 23.0311C39.5943 22.8981 39.747 22.7922 39.9161 22.7199C40.0852 22.6475 40.2673 22.6102 40.4513 22.6102C40.6352 22.6102 40.8173 22.6475 40.9864 22.7199C41.1555 22.7922 41.3082 22.8981 41.4353 23.0311C41.63 23.2273 41.8615 23.3831 42.1167 23.4894C42.3718 23.5957 42.6455 23.6504 42.9219 23.6504C43.1983 23.6504 43.4719 23.5957 43.7271 23.4894C43.9822 23.3831 44.2138 23.2273 44.4084 23.0311C44.537 22.9007 44.6902 22.7971 44.8591 22.7265C45.0281 22.6558 45.2094 22.6194 45.3925 22.6194C45.5756 22.6194 45.7569 22.6558 45.9259 22.7265C46.0948 22.7971 46.248 22.9007 46.3766 23.0311C46.5096 23.1582 46.6154 23.3109 46.6878 23.48C46.7601 23.6492 46.7974 23.8312 46.7974 24.0152C46.7974 24.1991 46.7601 24.3812 46.6878 24.5503C46.6154 24.7194 46.5096 24.8721 46.3766 24.9992L42.9219 28.5167L39.4672 25.1248C39.3342 24.9978 39.2283 24.8451 39.156 24.6759C39.0836 24.5068 39.0463 24.3247 39.0463 24.1408C39.0463 23.9568 39.0836 23.7748 39.156 23.6056C39.2283 23.4365 39.3342 23.2838 39.4672 23.1567V23.0311Z" fill="#0A243F"/>
<path d="M48.1563 35.5938C47.601 35.5938 47.0684 35.8143 46.6757 36.207C46.2831 36.5996 46.0625 37.1322 46.0625 37.6875C46.0625 43.4662 40.4303 48.1562 33.5 48.1562C26.5697 48.1562 20.9375 43.4662 20.9375 37.6875C20.9375 37.1322 20.7169 36.5996 20.3243 36.207C19.9316 35.8143 19.399 35.5938 18.8438 35.5938C18.2885 35.5938 17.7559 35.8143 17.3632 36.207C16.9706 36.5996 16.75 37.1322 16.75 37.6875C16.75 45.7694 24.2666 52.3438 33.5 52.3438C42.7334 52.3438 50.25 45.7694 50.25 37.6875C50.25 37.1322 50.0294 36.5996 49.6368 36.207C49.2441 35.8143 48.7116 35.5938 48.1563 35.5938Z" fill="#0A243F"/>
</svg>
