<svg width="512" height="512" viewBox="0 0 512 512" fill="none" xmlns="http://www.w3.org/2000/svg">
<path d="M224.113 303.961L307.387 256L224.113 208.039V303.961Z" fill="#FAFAFD"/>
<path d="M256 0C114.637 0 0 114.637 0 256C0 397.363 114.637 512 256 512C397.363 512 512 397.363 512 256C512 114.637 397.363 0 256 0ZM415.961 256.262C415.961 256.262 415.961 308.18 409.375 333.215C405.684 346.918 394.879 357.723 381.176 361.41C356.141 368 256 368 256 368C256 368 156.121 368 130.824 361.148C117.121 357.461 106.316 346.652 102.625 332.949C96.0352 308.18 96.0352 256 96.0352 256C96.0352 256 96.0352 204.086 102.625 179.051C106.312 165.348 117.383 154.277 130.824 150.59C155.859 144 256 144 256 144C256 144 356.141 144 381.176 150.852C394.879 154.539 405.684 165.348 409.375 179.051C416.227 204.086 415.961 256.262 415.961 256.262Z" fill="#FAFAFD"/>
</svg>
